<svg version="1.1" id="Layer_1" xmlns="http://www.w3.org/2000/svg" xmlns:xlink="http://www.w3.org/1999/xlink" x="0px" y="0px"
	 width="100%" viewBox="0 0 565 101" enable-background="new 0 0 565 101" xml:space="preserve">
<path fill="#FDFDFD" opacity="1.000000" stroke="none" 
	d="
M417.000000,102.000000 
	C278.000031,102.000000 139.500046,102.000000 1.000056,102.000000 
	C1.000037,68.333366 1.000037,34.666729 1.000019,1.000069 
	C189.333267,1.000046 377.666534,1.000046 565.999878,1.000023 
	C565.999878,34.666595 565.999878,68.333191 565.999939,101.999893 
	C516.500000,102.000000 467.000000,102.000000 417.000000,102.000000 
M99.500000,94.000145 
	C113.433144,94.000145 127.366295,94.000145 141.525848,94.000145 
	C141.525848,79.599228 142.293625,65.755699 141.354218,52.028996 
	C139.760574,28.742481 123.009346,14.006693 99.557297,14.000677 
	C82.728622,13.996360 65.893829,13.744802 49.074837,14.148345 
	C43.706001,14.277160 37.961876,15.221240 33.107063,17.394970 
	C14.624128,25.670660 5.733989,43.983498 10.061110,63.348473 
	C14.056891,81.230614 30.500713,93.895149 50.013493,93.984604 
	C66.175346,94.058693 82.337807,94.000000 99.500000,94.000145 
M516.771790,61.644894 
	C516.120178,59.412128 515.224609,57.217655 514.866943,54.938766 
	C514.083862,49.949928 511.462372,48.169937 506.236755,49.798653 
	C504.360352,56.227772 502.404938,62.927509 500.449554,69.627243 
	C500.123016,69.603714 499.796478,69.580193 499.469910,69.556664 
	C497.960449,62.875881 496.450989,56.195095 494.951080,49.556587 
	C492.466583,49.556587 490.351074,49.556587 487.671326,49.556587 
	C490.233459,60.277958 492.713379,70.655266 495.116333,80.710442 
	C498.395416,80.710442 500.999817,80.710442 503.497650,80.710442 
	C505.440857,73.643394 507.298218,66.888580 509.528473,58.777660 
	C511.933716,67.141151 513.931274,74.087204 515.885620,80.882797 
	C518.914917,80.882797 521.393066,80.882797 524.200439,80.882797 
	C526.616943,70.524361 529.020203,60.222702 531.504517,49.573765 
	C528.814209,49.573765 526.721008,49.573765 524.455017,49.573765 
	C522.941650,56.504208 521.470337,63.242432 519.998962,69.980659 
	C519.739990,69.982468 519.481018,69.984276 519.222046,69.986084 
	C518.467041,67.468185 517.712097,64.950279 516.771790,61.644894 
M191.643097,74.943092 
	C187.883621,64.126732 184.175507,53.291885 180.298279,42.517902 
	C179.825302,41.203632 178.614441,39.463329 177.455765,39.201138 
	C170.619995,37.654324 168.607315,38.922729 166.315475,45.586102 
	C162.299362,57.262642 158.304977,68.946655 154.235794,80.819183 
	C157.415680,80.819183 160.046753,80.819183 161.797882,80.819183 
	C165.540298,78.050102 162.350555,71.438171 168.792374,71.305916 
	C172.943497,71.220688 177.613358,70.276459 181.073257,71.856972 
	C183.369293,72.905815 183.937454,77.737160 185.232239,80.765793 
	C187.947464,80.765793 190.533218,80.765793 193.400787,80.765793 
	C192.844742,78.883553 192.379257,77.307831 191.643097,74.943092 
M483.096344,75.196938 
	C481.712921,73.634491 480.329498,72.072052 478.730988,70.266685 
	C475.406036,74.394127 471.669952,76.369919 467.448975,74.049423 
	C465.300171,72.868118 464.040649,70.069244 462.379120,68.001579 
	C462.742065,67.588768 463.105011,67.175949 463.467957,66.763138 
	C470.213928,66.763138 476.959900,66.763138 483.642242,66.763138 
	C484.597107,56.576469 481.708313,51.102104 474.700409,49.313023 
	C466.860107,47.311436 459.154449,50.688190 456.255157,57.396061 
	C452.920105,65.112068 455.209198,75.134018 461.199738,79.044151 
	C468.042328,83.510445 477.230865,82.166382 483.096344,75.196938 
M350.831879,78.848808 
	C360.200043,83.811119 368.743439,82.146538 373.549316,74.120583 
	C371.821350,73.009628 370.083282,71.892174 368.250885,70.714073 
	C365.457336,74.396347 362.130402,75.766663 357.995697,74.439240 
	C354.535522,73.328384 353.122192,70.774857 353.170227,66.843170 
	C360.054291,66.843170 366.809052,66.843170 373.500031,66.843170 
	C374.628174,58.356323 372.681519,53.072605 367.651337,50.433239 
	C362.130249,47.536289 353.788483,48.614517 349.459503,52.784634 
	C342.956512,59.048969 343.330872,71.293266 350.831879,78.848808 
M258.777374,66.257797 
	C259.456451,55.848839 256.173645,50.333332 248.555237,49.083496 
	C239.563431,47.608349 232.535278,51.829178 230.411606,59.979836 
	C228.042160,69.073685 231.742584,77.811317 239.109100,80.516785 
	C247.162064,83.474373 254.871704,80.942795 258.365692,73.933510 
	C256.760895,72.910812 255.122467,71.866661 253.218063,70.653030 
	C250.535278,74.520760 246.834778,76.190742 242.796265,74.181137 
	C240.527039,73.051971 239.076035,70.278465 237.256409,68.245773 
	C237.582077,67.785004 237.907761,67.324242 238.233429,66.863472 
	C244.846878,66.863472 251.460312,66.863472 258.777374,66.257797 
M293.000702,70.540054 
	C293.072723,67.545708 292.854279,64.508568 293.287659,61.567467 
	C293.876587,57.571133 296.444275,55.474190 300.601593,55.608501 
	C305.035065,55.751732 305.460083,58.904182 305.482300,62.257172 
	C305.522949,68.393425 305.493866,74.530136 305.493866,80.731064 
	C308.323120,80.731064 310.723969,80.731064 313.237549,80.731064 
	C313.237549,73.143898 313.327820,65.830841 313.200989,58.521538 
	C313.133453,54.629032 311.774384,50.614933 307.742249,49.961185 
	C303.954315,49.347034 299.837799,50.467304 295.920990,51.143593 
	C294.932251,51.314308 294.153992,52.703712 293.037140,53.762344 
	C292.748993,46.725368 288.348175,49.935539 285.293884,49.636383 
	C285.293884,60.266727 285.293884,70.519562 285.293884,80.721924 
	C287.974701,80.721924 290.376770,80.721924 293.000732,80.721924 
	C293.000732,77.462257 293.000732,74.486168 293.000702,70.540054 
M559.768005,73.876732 
	C560.174988,66.880196 558.243835,64.094765 551.639404,62.288509 
	C549.716492,61.762604 547.634277,61.651272 545.848694,60.851021 
	C544.692688,60.332920 543.942505,58.909420 543.010498,57.891613 
	C544.187561,56.958851 545.423157,55.182014 546.530212,55.258781 
	C549.340515,55.453636 552.093262,56.478962 555.346497,57.290951 
	C556.234436,56.321579 557.532043,54.904953 559.005615,53.296284 
	C553.934326,48.214001 548.161316,48.076687 542.141907,49.715908 
	C538.022156,50.837830 535.693298,53.746490 535.527039,58.081013 
	C535.358398,62.477409 537.678711,65.327217 541.661011,66.789322 
	C543.992065,67.645187 546.590088,67.864571 548.799561,68.927979 
	C550.153503,69.579628 550.999451,71.286659 552.073486,72.519745 
	C550.653076,73.375725 549.073181,75.131401 547.843140,74.913368 
	C544.587402,74.336273 541.483032,72.905037 537.910156,71.672920 
	C537.065979,72.593147 535.729858,74.049713 534.428162,75.468689 
	C540.582153,84.205475 554.805725,83.612846 559.768005,73.876732 
M407.040833,63.525341 
	C409.226257,69.367958 411.411713,75.210579 413.583984,81.017929 
	C416.041870,81.017929 418.061890,81.220306 420.014801,80.945427 
	C421.277008,80.767754 423.186768,80.180382 423.534241,79.283669 
	C427.289581,69.592308 430.792297,59.803051 434.433624,49.850250 
	C429.220428,48.551811 425.917236,48.973343 424.536804,54.785576 
	C423.167664,60.550163 420.676453,66.048241 418.353516,72.572708 
	C416.125824,66.345337 414.164276,60.922657 412.246185,55.484627 
	C409.909302,48.859207 409.925140,48.853619 401.978302,49.737831 
	C403.618591,54.144394 405.224396,58.458324 407.040833,63.525341 
M218.116364,58.066845 
	C222.079025,61.773636 222.770432,56.581402 225.212067,55.910255 
	C221.273361,49.417492 214.737274,47.223610 207.317688,49.609730 
	C200.098267,51.931480 196.220795,58.734295 197.132675,67.478714 
	C197.979401,75.598167 202.844879,80.584198 210.796783,81.481346 
	C218.231857,82.320175 223.098373,79.393211 225.582611,72.404556 
	C223.776932,71.440865 221.941223,70.461143 220.165436,69.513405 
	C216.264267,74.900314 212.512589,76.206047 208.724762,73.778046 
	C205.070572,71.435699 203.971497,63.020382 206.751724,58.671383 
	C208.991455,55.167881 212.879227,54.726780 218.116364,58.066845 
M331.145630,58.708755 
	C331.873596,52.205677 337.512848,58.094006 339.823120,54.827168 
	C339.823120,53.415939 339.823120,51.522903 339.823120,49.092422 
	C336.812622,49.092422 334.093323,49.092422 331.320190,49.092422 
	C331.170319,46.453819 331.050781,44.349644 330.912933,41.922462 
	C328.224976,42.419205 325.849731,42.858154 323.289978,43.331203 
	C323.200256,45.313004 323.119507,47.096905 323.038544,48.885509 
	C321.395111,49.202995 320.003357,49.471867 318.635315,49.736149 
	C318.635315,51.789162 318.635315,53.550613 318.635315,55.488041 
	C320.254578,55.716797 321.630615,55.911186 323.161835,56.127499 
	C323.161835,61.157074 323.077576,65.807442 323.187012,70.453247 
	C323.284607,74.596260 324.122589,78.609322 328.397614,80.456917 
	C332.720123,82.325027 337.054077,82.130150 341.339935,79.197456 
	C340.636414,77.266762 339.986938,75.484467 339.373291,73.800560 
	C332.175812,75.150269 331.186279,74.345337 331.148071,67.651680 
	C331.132843,64.988258 331.145355,62.324680 331.145630,58.708755 
M386.836731,49.343117 
	C384.915070,49.343117 382.993378,49.343117 380.847900,49.343117 
	C380.847900,55.174999 380.847900,60.329338 380.847900,65.483673 
	C380.847900,70.586395 380.847900,75.689117 380.847900,80.679489 
	C383.813019,80.679489 386.200104,80.679489 388.427277,80.679489 
	C388.643066,80.194603 388.763275,80.049713 388.764282,79.904022 
	C388.793976,75.573692 388.784546,71.242935 388.837311,66.912941 
	C388.945038,58.076691 390.646118,56.372337 399.459564,56.468243 
	C399.838318,54.458786 400.226257,52.400723 400.632324,50.246487 
	C395.717896,47.604343 392.278503,49.796791 389.186890,53.154415 
	C388.634125,51.827423 388.143555,50.649727 386.836731,49.343117 
M266.939545,39.775162 
	C266.939545,53.458000 266.939545,67.140839 266.939545,80.753281 
	C269.853516,80.753281 272.267273,80.753281 274.737671,80.753281 
	C274.737671,66.816437 274.737671,53.128632 274.737671,39.147732 
	C272.216431,39.147732 269.933594,39.147732 266.939545,39.775162 
M447.460938,67.488510 
	C447.460938,61.541630 447.460938,55.594746 447.460938,49.617218 
	C444.566650,49.617218 442.302795,49.617218 439.814758,49.617218 
	C439.814758,60.145531 439.814758,70.412567 439.814758,80.712158 
	C442.378479,80.712158 444.781128,80.712158 447.460907,80.712158 
	C447.460907,76.442841 447.460907,72.461830 447.460938,67.488510 
M442.777740,36.330376 
	C439.046295,37.232449 437.566345,40.007774 439.378479,42.950710 
	C440.290314,44.431561 443.733490,44.790668 446.015198,44.748661 
	C446.789673,44.734402 448.499603,41.464401 448.044769,40.510479 
	C447.214050,38.768169 445.088074,37.643429 442.777740,36.330376 
z"/>
<path fill="#4A47D2" opacity="1.000000" stroke="none" 
	d="
M99.000000,94.000145 
	C82.337807,94.000000 66.175346,94.058693 50.013493,93.984604 
	C30.500713,93.895149 14.056891,81.230614 10.061110,63.348473 
	C5.733989,43.983498 14.624128,25.670660 33.107063,17.394970 
	C37.961876,15.221240 43.706001,14.277160 49.074837,14.148345 
	C65.893829,13.744802 82.728622,13.996360 99.557297,14.000677 
	C123.009346,14.006693 139.760574,28.742481 141.354218,52.028996 
	C142.293625,65.755699 141.525848,79.599228 141.525848,94.000145 
	C127.366295,94.000145 113.433144,94.000145 99.000000,94.000145 
M24.006172,55.323475 
	C25.521942,69.776764 35.436188,78.913445 49.895107,78.979538 
	C66.870094,79.057137 83.846191,79.075089 100.820923,78.972519 
	C115.275215,78.885178 127.048561,67.877678 126.677528,54.099339 
	C126.223717,37.246689 113.152184,28.959789 101.047913,28.992619 
	C83.906258,29.039112 66.763947,28.926596 49.622753,29.026161 
	C34.687485,29.112915 24.287043,39.527058 24.006172,55.323475 
z"/>
<path fill="#0B0B0B" opacity="1.000000" stroke="none" 
	d="
M516.864441,62.038635 
	C517.712097,64.950279 518.467041,67.468185 519.222046,69.986084 
	C519.481018,69.984276 519.739990,69.982468 519.998962,69.980659 
	C521.470337,63.242432 522.941650,56.504208 524.455017,49.573765 
	C526.721008,49.573765 528.814209,49.573765 531.504517,49.573765 
	C529.020203,60.222702 526.616943,70.524361 524.200439,80.882797 
	C521.393066,80.882797 518.914917,80.882797 515.885620,80.882797 
	C513.931274,74.087204 511.933716,67.141151 509.528473,58.777660 
	C507.298218,66.888580 505.440857,73.643394 503.497650,80.710442 
	C500.999817,80.710442 498.395416,80.710442 495.116333,80.710442 
	C492.713379,70.655266 490.233459,60.277958 487.671326,49.556587 
	C490.351074,49.556587 492.466583,49.556587 494.951080,49.556587 
	C496.450989,56.195095 497.960449,62.875881 499.469910,69.556664 
	C499.796478,69.580193 500.123016,69.603714 500.449554,69.627243 
	C502.404938,62.927509 504.360352,56.227772 506.236755,49.798653 
	C511.462372,48.169937 514.083862,49.949928 514.866943,54.938766 
	C515.224609,57.217655 516.120178,59.412128 516.864441,62.038635 
z"/>
<path fill="#080808" opacity="1.000000" stroke="none" 
	d="
M191.778427,75.337601 
	C192.379257,77.307831 192.844742,78.883553 193.400787,80.765793 
	C190.533218,80.765793 187.947464,80.765793 185.232239,80.765793 
	C183.937454,77.737160 183.369293,72.905815 181.073257,71.856972 
	C177.613358,70.276459 172.943497,71.220688 168.792374,71.305916 
	C162.350555,71.438171 165.540298,78.050102 161.797882,80.819183 
	C160.046753,80.819183 157.415680,80.819183 154.235794,80.819183 
	C158.304977,68.946655 162.299362,57.262642 166.315475,45.586102 
	C168.607315,38.922729 170.619995,37.654324 177.455765,39.201138 
	C178.614441,39.463329 179.825302,41.203632 180.298279,42.517902 
	C184.175507,53.291885 187.883621,64.126732 191.778427,75.337601 
M171.334900,54.007320 
	C170.322266,57.285061 169.309647,60.562798 168.220306,64.088890 
	C172.091141,64.088890 175.496841,64.088890 179.427628,64.088890 
	C177.576157,58.480473 175.854401,53.264965 173.757172,46.912125 
	C172.779938,49.899742 172.225266,51.595528 171.334900,54.007320 
z"/>
<path fill="#070707" opacity="1.000000" stroke="none" 
	d="
M482.924164,75.544266 
	C477.230865,82.166382 468.042328,83.510445 461.199738,79.044151 
	C455.209198,75.134018 452.920105,65.112068 456.255157,57.396061 
	C459.154449,50.688190 466.860107,47.311436 474.700409,49.313023 
	C481.708313,51.102104 484.597107,56.576469 483.642242,66.763138 
	C476.959900,66.763138 470.213928,66.763138 463.467957,66.763138 
	C463.105011,67.175949 462.742065,67.588768 462.379120,68.001579 
	C464.040649,70.069244 465.300171,72.868118 467.448975,74.049423 
	C471.669952,76.369919 475.406036,74.394127 478.730988,70.266685 
	C480.329498,72.072052 481.712921,73.634491 482.924164,75.544266 
M464.333374,61.911591 
	C468.235168,61.911591 472.136963,61.911591 476.108551,61.911591 
	C476.223419,57.298790 474.345367,54.998386 470.263824,55.032349 
	C465.977631,55.068008 463.505493,57.234341 464.333374,61.911591 
z"/>
<path fill="#070707" opacity="1.000000" stroke="none" 
	d="
M350.537079,78.618103 
	C343.330872,71.293266 342.956512,59.048969 349.459503,52.784634 
	C353.788483,48.614517 362.130249,47.536289 367.651337,50.433239 
	C372.681519,53.072605 374.628174,58.356323 373.500031,66.843170 
	C366.809052,66.843170 360.054291,66.843170 353.170227,66.843170 
	C353.122192,70.774857 354.535522,73.328384 357.995697,74.439240 
	C362.130402,75.766663 365.457336,74.396347 368.250885,70.714073 
	C370.083282,71.892174 371.821350,73.009628 373.549316,74.120583 
	C368.743439,82.146538 360.200043,83.811119 350.537079,78.618103 
M361.258820,55.028488 
	C356.450989,54.696949 353.828308,56.882950 353.315308,61.791897 
	C357.655579,61.791897 361.785461,61.791897 365.915314,61.791897 
	C366.273071,61.433418 366.630829,61.074944 366.988617,60.716465 
	C365.347473,58.856258 363.706329,56.996056 361.258820,55.028488 
z"/>
<path fill="#070707" opacity="1.000000" stroke="none" 
	d="
M258.425568,66.560638 
	C251.460312,66.863472 244.846878,66.863472 238.233429,66.863472 
	C237.907761,67.324242 237.582077,67.785004 237.256409,68.245773 
	C239.076035,70.278465 240.527039,73.051971 242.796265,74.181137 
	C246.834778,76.190742 250.535278,74.520760 253.218063,70.653030 
	C255.122467,71.866661 256.760895,72.910812 258.365692,73.933510 
	C254.871704,80.942795 247.162064,83.474373 239.109100,80.516785 
	C231.742584,77.811317 228.042160,69.073685 230.411606,59.979836 
	C232.535278,51.829178 239.563431,47.608349 248.555237,49.083496 
	C256.173645,50.333332 259.456451,55.848839 258.425568,66.560638 
M238.516205,61.742596 
	C242.646530,61.742596 246.776855,61.742596 250.986603,61.742596 
	C251.487091,58.123024 250.081467,55.723278 246.571869,55.122963 
	C242.048019,54.349171 239.282242,56.517708 238.516205,61.742596 
z"/>
<path fill="#060606" opacity="1.000000" stroke="none" 
	d="
M293.000732,71.025070 
	C293.000732,74.486168 293.000732,77.462257 293.000732,80.721924 
	C290.376770,80.721924 287.974701,80.721924 285.293884,80.721924 
	C285.293884,70.519562 285.293884,60.266727 285.293884,49.636383 
	C288.348175,49.935539 292.748993,46.725368 293.037140,53.762344 
	C294.153992,52.703712 294.932251,51.314308 295.920990,51.143593 
	C299.837799,50.467304 303.954315,49.347034 307.742249,49.961185 
	C311.774384,50.614933 313.133453,54.629032 313.200989,58.521538 
	C313.327820,65.830841 313.237549,73.143898 313.237549,80.731064 
	C310.723969,80.731064 308.323120,80.731064 305.493866,80.731064 
	C305.493866,74.530136 305.522949,68.393425 305.482300,62.257172 
	C305.460083,58.904182 305.035065,55.751732 300.601593,55.608501 
	C296.444275,55.474190 293.876587,57.571133 293.287659,61.567467 
	C292.854279,64.508568 293.072723,67.545708 293.000732,71.025070 
z"/>
<path fill="#0A0A0A" opacity="1.000000" stroke="none" 
	d="
M559.636841,74.250122 
	C554.805725,83.612846 540.582153,84.205475 534.428162,75.468689 
	C535.729858,74.049713 537.065979,72.593147 537.910156,71.672920 
	C541.483032,72.905037 544.587402,74.336273 547.843140,74.913368 
	C549.073181,75.131401 550.653076,73.375725 552.073486,72.519745 
	C550.999451,71.286659 550.153503,69.579628 548.799561,68.927979 
	C546.590088,67.864571 543.992065,67.645187 541.661011,66.789322 
	C537.678711,65.327217 535.358398,62.477409 535.527039,58.081013 
	C535.693298,53.746490 538.022156,50.837830 542.141907,49.715908 
	C548.161316,48.076687 553.934326,48.214001 559.005615,53.296284 
	C557.532043,54.904953 556.234436,56.321579 555.346497,57.290951 
	C552.093262,56.478962 549.340515,55.453636 546.530212,55.258781 
	C545.423157,55.182014 544.187561,56.958851 543.010498,57.891617 
	C543.942505,58.909420 544.692688,60.332920 545.848694,60.851021 
	C547.634277,61.651272 549.716492,61.762604 551.639404,62.288509 
	C558.243835,64.094765 560.174988,66.880196 559.636841,74.250122 
z"/>
<path fill="#0B0B0B" opacity="1.000000" stroke="none" 
	d="
M406.935547,63.148796 
	C405.224396,58.458324 403.618591,54.144394 401.978302,49.737831 
	C409.925140,48.853619 409.909302,48.859207 412.246185,55.484627 
	C414.164276,60.922657 416.125824,66.345337 418.353516,72.572708 
	C420.676453,66.048241 423.167664,60.550163 424.536804,54.785576 
	C425.917236,48.973343 429.220428,48.551811 434.433624,49.850250 
	C430.792297,59.803051 427.289581,69.592308 423.534241,79.283669 
	C423.186768,80.180382 421.277008,80.767754 420.014801,80.945427 
	C418.061890,81.220306 416.041870,81.017929 413.583984,81.017929 
	C411.411713,75.210579 409.226257,69.367958 406.935547,63.148796 
z"/>
<path fill="#0A0A0A" opacity="1.000000" stroke="none" 
	d="
M217.895813,57.749424 
	C212.879227,54.726780 208.991455,55.167881 206.751724,58.671383 
	C203.971497,63.020382 205.070572,71.435699 208.724762,73.778046 
	C212.512589,76.206047 216.264267,74.900314 220.165436,69.513405 
	C221.941223,70.461143 223.776932,71.440865 225.582611,72.404556 
	C223.098373,79.393211 218.231857,82.320175 210.796783,81.481346 
	C202.844879,80.584198 197.979401,75.598167 197.132675,67.478714 
	C196.220795,58.734295 200.098267,51.931480 207.317688,49.609730 
	C214.737274,47.223610 221.273361,49.417492 225.212067,55.910255 
	C222.770432,56.581402 222.079025,61.773636 217.895813,57.749424 
z"/>
<path fill="#0E0E0E" opacity="1.000000" stroke="none" 
	d="
M331.145447,59.184963 
	C331.145355,62.324680 331.132843,64.988258 331.148071,67.651680 
	C331.186279,74.345337 332.175812,75.150269 339.373291,73.800560 
	C339.986938,75.484467 340.636414,77.266762 341.339935,79.197456 
	C337.054077,82.130150 332.720123,82.325027 328.397614,80.456917 
	C324.122589,78.609322 323.284607,74.596260 323.187012,70.453247 
	C323.077576,65.807442 323.161835,61.157074 323.161835,56.127499 
	C321.630615,55.911186 320.254578,55.716797 318.635315,55.488041 
	C318.635315,53.550613 318.635315,51.789162 318.635315,49.736149 
	C320.003357,49.471867 321.395111,49.202995 323.038544,48.885509 
	C323.119507,47.096905 323.200256,45.313004 323.289978,43.331203 
	C325.849731,42.858154 328.224976,42.419205 330.912933,41.922462 
	C331.050781,44.349644 331.170319,46.453819 331.320190,49.092422 
	C334.093323,49.092422 336.812622,49.092422 339.823120,49.092422 
	C339.823120,51.522903 339.823120,53.415939 339.823120,54.827168 
	C337.512848,58.094006 331.873596,52.205677 331.145447,59.184963 
z"/>
<path fill="#0B0B0B" opacity="1.000000" stroke="none" 
	d="
M387.244843,49.407578 
	C388.143555,50.649727 388.634125,51.827423 389.186890,53.154415 
	C392.278503,49.796791 395.717896,47.604343 400.632324,50.246487 
	C400.226257,52.400723 399.838318,54.458786 399.459564,56.468243 
	C390.646118,56.372337 388.945038,58.076691 388.837311,66.912941 
	C388.784546,71.242935 388.793976,75.573692 388.764282,79.904022 
	C388.763275,80.049713 388.643066,80.194603 388.427277,80.679489 
	C386.200104,80.679489 383.813019,80.679489 380.847900,80.679489 
	C380.847900,75.689117 380.847900,70.586395 380.847900,65.483673 
	C380.847900,60.329338 380.847900,55.174999 380.847900,49.343117 
	C382.993378,49.343117 384.915070,49.343117 387.244843,49.407578 
z"/>
<path fill="#020202" opacity="1.000000" stroke="none" 
	d="
M267.295166,39.461449 
	C269.933594,39.147732 272.216431,39.147732 274.737671,39.147732 
	C274.737671,53.128632 274.737671,66.816437 274.737671,80.753281 
	C272.267273,80.753281 269.853516,80.753281 266.939545,80.753281 
	C266.939545,67.140839 266.939545,53.458000 267.295166,39.461449 
z"/>
<path fill="#030303" opacity="1.000000" stroke="none" 
	d="
M447.460938,67.984665 
	C447.460907,72.461830 447.460907,76.442841 447.460907,80.712158 
	C444.781128,80.712158 442.378479,80.712158 439.814758,80.712158 
	C439.814758,70.412567 439.814758,60.145531 439.814758,49.617218 
	C442.302795,49.617218 444.566650,49.617218 447.460938,49.617218 
	C447.460938,55.594746 447.460938,61.541630 447.460938,67.984665 
z"/>
<path fill="#121212" opacity="1.000000" stroke="none" 
	d="
M443.140045,36.295734 
	C445.088074,37.643429 447.214050,38.768169 448.044769,40.510479 
	C448.499603,41.464401 446.789673,44.734402 446.015198,44.748661 
	C443.733490,44.790668 440.290314,44.431561 439.378479,42.950710 
	C437.566345,40.007774 439.046295,37.232449 443.140045,36.295734 
z"/>
<path fill="#A4B3FB" opacity="1.000000" stroke="none" 
	d="
M24.003891,54.881279 
	C24.287043,39.527058 34.687485,29.112915 49.622753,29.026161 
	C66.763947,28.926596 83.906258,29.039112 101.047913,28.992619 
	C113.152184,28.959789 126.223717,37.246689 126.677528,54.099339 
	C127.048561,67.877678 115.275215,78.885178 100.820923,78.972519 
	C83.846191,79.075089 66.870094,79.057137 49.895107,78.979538 
	C35.436188,78.913445 25.521942,69.776764 24.003891,54.881279 
M39.000626,61.384563 
	C43.832344,66.441833 49.278973,67.724129 54.589340,65.054588 
	C59.419781,62.626316 62.079716,57.648594 61.300430,52.322437 
	C60.528469,47.046314 57.540752,43.486324 52.450027,42.033348 
	C47.382992,40.587135 42.826111,41.858555 39.454784,45.986107 
	C35.677223,50.611019 35.589397,55.652443 39.000626,61.384563 
M96.638855,63.978939 
	C101.412460,67.110947 106.314529,67.318047 111.090317,64.186897 
	C115.183220,61.503460 116.912125,57.461704 116.456314,52.616882 
	C115.934952,47.075287 111.915718,42.842625 106.391823,41.765003 
	C101.170013,40.746315 95.891716,43.132004 93.231445,47.713272 
	C90.310265,52.743820 91.320656,58.369205 96.638855,63.978939 
z"/>
<path fill="#F5F5F5" opacity="1.000000" stroke="none" 
	d="
M171.502747,53.649315 
	C172.225266,51.595528 172.779938,49.899742 173.757172,46.912125 
	C175.854401,53.264965 177.576157,58.480473 179.427628,64.088890 
	C175.496841,64.088890 172.091141,64.088890 168.220306,64.088890 
	C169.309647,60.562798 170.322266,57.285061 171.502747,53.649315 
z"/>
<path fill="#F2F2F2" opacity="1.000000" stroke="none" 
	d="
M463.926849,61.828098 
	C463.505493,57.234341 465.977631,55.068008 470.263824,55.032349 
	C474.345367,54.998386 476.223419,57.298790 476.108551,61.911591 
	C472.136963,61.911591 468.235168,61.911591 463.926849,61.828098 
z"/>
<path fill="#F2F2F2" opacity="1.000000" stroke="none" 
	d="
M361.662018,55.082169 
	C363.706329,56.996056 365.347473,58.856258 366.988617,60.716465 
	C366.630829,61.074944 366.273071,61.433418 365.915314,61.791897 
	C361.785461,61.791897 357.655579,61.791897 353.315308,61.791897 
	C353.828308,56.882950 356.450989,54.696949 361.662018,55.082169 
z"/>
<path fill="#F2F2F2" opacity="1.000000" stroke="none" 
	d="
M238.395767,61.353638 
	C239.282242,56.517708 242.048019,54.349171 246.571869,55.122963 
	C250.081467,55.723278 251.487091,58.123024 250.986603,61.742596 
	C246.776855,61.742596 242.646530,61.742596 238.395767,61.353638 
z"/>
<path fill="#070709" opacity="1.000000" stroke="none" 
	d="
M38.776314,61.084953 
	C35.589397,55.652443 35.677223,50.611019 39.454784,45.986107 
	C42.826111,41.858555 47.382992,40.587135 52.450027,42.033348 
	C57.540752,43.486324 60.528469,47.046314 61.300430,52.322437 
	C62.079716,57.648594 59.419781,62.626316 54.589340,65.054588 
	C49.278973,67.724129 43.832344,66.441833 38.776314,61.084953 
z"/>
<path fill="#070709" opacity="1.000000" stroke="none" 
	d="
M96.353508,63.742912 
	C91.320656,58.369205 90.310265,52.743820 93.231445,47.713272 
	C95.891716,43.132004 101.170013,40.746315 106.391823,41.765003 
	C111.915718,42.842625 115.934952,47.075287 116.456314,52.616882 
	C116.912125,57.461704 115.183220,61.503460 111.090317,64.186897 
	C106.314529,67.318047 101.412460,67.110947 96.353508,63.742912 
z"/>
</svg>